<svg width="74" height="136" viewBox="0 0 74 136" fill="none" xmlns="http://www.w3.org/2000/svg">
<path d="M73.4837 136L28.9837 47C21.6478 66.8719 20.5065 79.3537 23.4997 102.5L31.4997 120C36.9965 131.094 39.9107 133.978 46.4997 136H73.4837Z" fill="url(#paint0_linear_132_1046)"/>
<path d="M22.2619 0.00012207H39.7038L15.6227 47.4999C10.2841 57.8833 9.25877 65.5936 12 77.5L0.622721 49.9999C-1.25384 43.3538 1.43398 40.5348 4.39119 34L21.3912 0.5L21.413 0.478285C21.7014 0.190919 21.8029 0.0898072 22.2619 0.00012207Z" fill="#75C2FC"/>
<g filter="url(#filter0_di_132_1046)">
<path d="M38.8394 0H53.8394L29 49C20.9708 64.5782 21.4293 93.2999 27.424 111.085L31.5 120C29.9487 117.553 28.5829 114.524 27.424 111.085L11.8394 77C8.89977 64.0943 9.19552 57.4195 14.8394 47L38.8394 0Z" fill="url(#paint1_linear_132_1046)"/>
</g>
<defs>
<filter id="filter0_di_132_1046" x="10" y="0" width="52.8398" height="128" filterUnits="userSpaceOnUse" color-interpolation-filters="sRGB">
<feFlood flood-opacity="0" result="BackgroundImageFix"/>
<feColorMatrix in="SourceAlpha" type="matrix" values="0 0 0 0 0 0 0 0 0 0 0 0 0 0 0 0 0 0 127 0" result="hardAlpha"/>
<feOffset dx="5" dy="4"/>
<feGaussianBlur stdDeviation="2"/>
<feComposite in2="hardAlpha" operator="out"/>
<feColorMatrix type="matrix" values="0 0 0 0 0 0 0 0 0 0 0 0 0 0 0 0 0 0 0.25 0"/>
<feBlend mode="normal" in2="BackgroundImageFix" result="effect1_dropShadow_132_1046"/>
<feBlend mode="normal" in="SourceGraphic" in2="effect1_dropShadow_132_1046" result="shape"/>
<feColorMatrix in="SourceAlpha" type="matrix" values="0 0 0 0 0 0 0 0 0 0 0 0 0 0 0 0 0 0 127 0" result="hardAlpha"/>
<feOffset dx="4"/>
<feGaussianBlur stdDeviation="1.5"/>
<feComposite in2="hardAlpha" operator="arithmetic" k2="-1" k3="1"/>
<feColorMatrix type="matrix" values="0 0 0 0 0 0 0 0 0 0 0 0 0 0 0 0 0 0 0.3 0"/>
<feBlend mode="normal" in2="shape" result="effect2_innerShadow_132_1046"/>
</filter>
<linearGradient id="paint0_linear_132_1046" x1="87.9997" y1="123" x2="23.9997" y2="65" gradientUnits="userSpaceOnUse">
<stop stop-color="white"/>
<stop offset="1" stop-color="#1133BD"/>
</linearGradient>
<linearGradient id="paint1_linear_132_1046" x1="31.9197" y1="1.35507e-07" x2="25.4841" y2="145.5" gradientUnits="userSpaceOnUse">
<stop stop-color="#48A2F9"/>
<stop offset="1" stop-color="white"/>
</linearGradient>
</defs>
</svg>
