<svg width="82" height="144" viewBox="0 0 82 144" fill="none" xmlns="http://www.w3.org/2000/svg">
<g filter="url(#filter0_d_132_1050)">
<path d="M4.00063 0L48.5006 89C55.8366 69.1281 56.9779 56.6463 53.9847 33.5L45.9847 16C40.4879 4.90576 37.5737 2.02243 30.9847 0H4.00063Z" fill="url(#paint0_linear_132_1050)"/>
<path d="M55.2225 136H37.7805L61.8617 88.5001C67.2003 78.1167 68.2256 70.4064 65.4844 58.5L76.8617 86.0001C78.7382 92.6462 76.0504 95.4652 73.0932 102L56.0932 135.5L56.0714 135.522C55.783 135.809 55.6815 135.91 55.2225 136Z" fill="#75C2FC"/>
<g filter="url(#filter1_di_132_1050)">
<path d="M38.645 136H23.645L48.4844 87C56.5136 71.4218 56.055 42.7001 50.0603 24.9146L45.9844 16C47.5357 18.4469 48.9015 21.4764 50.0603 24.9146L65.645 59C68.5846 71.9057 68.2889 78.5805 62.645 89L38.645 136Z" fill="url(#paint1_linear_132_1050)"/>
</g>
</g>
<defs>
<filter id="filter0_d_132_1050" x="0.000976562" y="0" width="81.4834" height="144" filterUnits="userSpaceOnUse" color-interpolation-filters="sRGB">
<feFlood flood-opacity="0" result="BackgroundImageFix"/>
<feColorMatrix in="SourceAlpha" type="matrix" values="0 0 0 0 0 0 0 0 0 0 0 0 0 0 0 0 0 0 127 0" result="hardAlpha"/>
<feOffset dy="4"/>
<feGaussianBlur stdDeviation="2"/>
<feComposite in2="hardAlpha" operator="out"/>
<feColorMatrix type="matrix" values="0 0 0 0 0 0 0 0 0 0 0 0 0 0 0 0 0 0 0.25 0"/>
<feBlend mode="normal" in2="BackgroundImageFix" result="effect1_dropShadow_132_1050"/>
<feBlend mode="normal" in="SourceGraphic" in2="effect1_dropShadow_132_1050" result="shape"/>
</filter>
<filter id="filter1_di_132_1050" x="14.6445" y="16" width="52.8398" height="128" filterUnits="userSpaceOnUse" color-interpolation-filters="sRGB">
<feFlood flood-opacity="0" result="BackgroundImageFix"/>
<feColorMatrix in="SourceAlpha" type="matrix" values="0 0 0 0 0 0 0 0 0 0 0 0 0 0 0 0 0 0 127 0" result="hardAlpha"/>
<feOffset dx="-5" dy="4"/>
<feGaussianBlur stdDeviation="2"/>
<feComposite in2="hardAlpha" operator="out"/>
<feColorMatrix type="matrix" values="0 0 0 0 0 0 0 0 0 0 0 0 0 0 0 0 0 0 0.25 0"/>
<feBlend mode="normal" in2="BackgroundImageFix" result="effect1_dropShadow_132_1050"/>
<feBlend mode="normal" in="SourceGraphic" in2="effect1_dropShadow_132_1050" result="shape"/>
<feColorMatrix in="SourceAlpha" type="matrix" values="0 0 0 0 0 0 0 0 0 0 0 0 0 0 0 0 0 0 127 0" result="hardAlpha"/>
<feOffset dx="-4"/>
<feGaussianBlur stdDeviation="1.5"/>
<feComposite in2="hardAlpha" operator="arithmetic" k2="-1" k3="1"/>
<feColorMatrix type="matrix" values="0 0 0 0 0 0 0 0 0 0 0 0 0 0 0 0 0 0 0.3 0"/>
<feBlend mode="normal" in2="shape" result="effect2_innerShadow_132_1050"/>
</filter>
<linearGradient id="paint0_linear_132_1050" x1="-10.5153" y1="13" x2="53.4847" y2="71" gradientUnits="userSpaceOnUse">
<stop stop-color="white"/>
<stop offset="1" stop-color="#1133BD"/>
</linearGradient>
<linearGradient id="paint1_linear_132_1050" x1="45.5647" y1="136" x2="52.0002" y2="-9.5" gradientUnits="userSpaceOnUse">
<stop stop-color="#48A2F9"/>
<stop offset="1" stop-color="white"/>
</linearGradient>
</defs>
</svg>
